<svg xmlns="http://www.w3.org/2000/svg" width="256" height="256" viewBox="0 0 100 100"><path d="M50.41 82.08Q44.20 82.08 39.29 79.88Q34.39 77.67 31.60 73.76Q28.81 69.84 28.72 64.72L28.72 64.72L37.45 64.72Q37.90 69.13 41.09 72.14Q44.29 75.16 50.41 75.16L50.41 75.16Q56.26 75.16 59.63 72.23Q63.01 69.30 63.01 64.72L63.01 64.72Q63.01 61.11 61.03 58.86Q59.05 56.61 56.08 55.45Q53.11 54.27 48.07 52.92L48.07 52.92Q41.86 51.30 38.12 49.69Q34.39 48.06 31.73 44.60Q29.08 41.13 29.08 35.28L29.08 35.28Q29.08 30.16 31.69 26.20Q34.30 22.23 39.02 20.08Q43.75 17.91 49.87 17.91L49.87 17.91Q58.69 17.91 64.31 22.33Q69.94 26.73 70.66 34.02L70.66 34.02L61.66 34.02Q61.20 30.42 57.88 27.68Q54.55 24.94 49.06 24.94L49.06 24.94Q43.93 24.94 40.69 27.59Q37.45 30.24 37.45 35.02L37.45 35.02Q37.45 38.44 39.38 40.59Q41.32 42.76 44.15 43.88Q46.98 45.01 52.12 46.45L52.12 46.45Q58.33 48.16 62.11 49.82Q65.89 51.48 68.59 54.95Q71.28 58.41 71.28 64.36L71.28 64.36Q71.28 68.94 68.86 73.00Q66.42 77.05 61.66 79.56Q56.89 82.08 50.41 82.08L50.41 82.08Z" fill="#8a2be2"></path></svg>